<svg xmlns="http://www.w3.org/2000/svg" width="24" height="24" fill="none"><path fill="#2EF171" d="M7.5 3.75a3.75 3.75 0 1 0 0 7.5 3.75 3.75 0 0 0 0-7.5m0 6a2.25 2.25 0 1 1 0-4.5 2.25 2.25 0 0 1 0 4.5m9 1.5a3.75 3.75 0 1 0 0-7.5 3.75 3.75 0 0 0 0 7.5m0-6a2.25 2.25 0 1 1 0 4.5 2.25 2.25 0 0 1 0-4.5m-9 7.5a3.75 3.75 0 1 0 0 7.5 3.75 3.75 0 0 0 0-7.5m0 6a2.25 2.25 0 1 1 0-4.5 2.25 2.25 0 0 1 0 4.5m9-6a3.75 3.75 0 1 0 0 7.5 3.75 3.75 0 0 0 0-7.5m0 6a2.25 2.25 0 1 1 0-4.5 2.25 2.25 0 0 1 0 4.5"/></svg>