<svg xmlns="http://www.w3.org/2000/svg" width="56" height="56" fill="none"><path fill="#2EF171" d="M28.236 19.66h-4.663v6.671H27.5c3.036 0 4.71-1.238 4.71-3.452 0-2.074-1.44-3.22-3.974-3.22zm-4.663 9.319v7.353h4.835c3.16 0 4.835-1.285 4.835-3.7s-1.721-3.653-5.039-3.653h-4.63z"/><path fill="#2EF171" fill-rule="evenodd" d="M12.8 7c-2.967 0-5.162 2.633-5.064 5.489.095 2.743-.028 6.296-.91 9.194C5.94 24.588 4.445 26.425 2 26.662v2.676c2.445.236 3.94 2.073 4.826 4.98.882 2.897 1.005 6.45.91 9.193C7.638 46.367 9.833 49 12.8 49h30.403c2.967 0 5.162-2.633 5.064-5.489-.094-2.743.028-6.296.91-9.194.886-2.906 2.379-4.743 4.823-4.979v-2.676c-2.444-.236-3.937-2.073-4.822-4.98-.883-2.897-1.005-6.45-.91-9.193C48.364 9.633 46.17 7 43.202 7H12.8zm24.026 25.849c0 3.932-2.895 6.316-7.698 6.316h-9.06V16.827h9.013c4.005 0 6.634 2.198 6.634 5.572 0 2.369-1.768 4.49-4.021 4.861v.124c3.067.34 5.132 2.493 5.132 5.465z" clip-rule="evenodd"/></svg>