<svg xmlns="http://www.w3.org/2000/svg" width="56" height="56" fill="none"><path fill="#2EF171" d="M18.472 3h5.459v2.291h-3.176v2.291h3.176v2.291h-5.459V3zm6.551 0h5.458v1.992h-3.176v.399h3.176v4.582h-5.458V7.88h3.175v-.399h-3.175V3zm6.55 0h5.458v1.992h-3.175v.399h3.175v4.582h-5.458V7.88h3.176v-.399h-3.176V3z"/><path fill="#2EF171" fill-rule="evenodd" d="M42.72 49.898 46 13.023H10l3.276 36.88L27.978 54l14.742-4.102zm-3.446-29.336H16.699l.41 4.523h17.226l-.41 4.632H17.51l.404 4.523h15.619l-.523 5.867-5.027 1.362h-.004l-5.02-1.36-.32-3.607h-4.524l.631 7.102 9.232 2.572.02-.005v-.001l9.225-2.566 1.126-12.672.11-1.215.814-9.155z" clip-rule="evenodd"/></svg>