<svg xmlns="http://www.w3.org/2000/svg" width="56" height="56" fill="none"><path fill="#2EF171" fill-rule="evenodd" d="M28.018 6C15.843 6 6 16.083 6 28.558c0 9.971 6.307 18.412 15.055 21.4 1.094.224 1.495-.486 1.495-1.083 0-.523-.036-2.316-.036-4.184-6.125 1.345-7.4-2.689-7.4-2.689-.985-2.614-2.443-3.286-2.443-3.286-2.005-1.382.146-1.382.146-1.382 2.223.15 3.39 2.316 3.39 2.316 1.968 3.435 5.14 2.465 6.416 1.867.182-1.457.766-2.465 1.385-3.025-4.885-.523-10.024-2.465-10.024-11.13 0-2.464.874-4.481 2.26-6.05-.22-.56-.985-2.876.218-5.975 0 0 1.86-.598 6.051 2.315a20.837 20.837 0 0 1 5.505-.747c1.86 0 3.755.262 5.505.747 4.192-2.913 6.051-2.315 6.051-2.315 1.203 3.1.437 5.415.219 5.975 1.422 1.569 2.26 3.585 2.26 6.05 0 8.665-5.14 10.57-10.061 11.13.802.71 1.494 2.054 1.494 4.183 0 3.025-.036 5.453-.036 6.2 0 .597.401 1.307 1.494 1.083C43.694 46.969 50 38.529 50 28.558 50.036 16.083 40.157 6 28.018 6z" clip-rule="evenodd"/></svg>