<svg xmlns="http://www.w3.org/2000/svg" width="56" height="56" fill="none"><path fill="#2EF171" d="M13.35 3h2.29v2.27h2.095V3h2.29v6.877h-2.29V7.574H15.64v2.303h-2.29V3zm9.687 2.28h-2.016V3h6.324v2.28h-2.017v4.597h-2.29l-.001-4.597zM28.348 3h2.389l1.469 2.416L33.672 3h2.39v6.877H33.78V6.468l-1.575 2.445h-.04L30.59 6.468v3.409h-2.24V3zm8.854 0h2.291v4.604h3.22v2.273h-5.51V3z"/><path fill="#2EF171" fill-rule="evenodd" d="M10 13.022 13.276 49.9l14.702 4.096 14.742-4.102L46 13.022H10zm12.036 16.693-.412-4.632h17.247l.403-4.523H16.699l1.216 13.677h15.619l-.523 5.866-5.027 1.362-.004.001-5.019-1.36-.32-3.607h-4.525l.631 7.102 9.232 2.572.021-.006v-.001l9.224-2.565 1.126-12.672.11-1.214H22.036z" clip-rule="evenodd"/></svg>