<svg xmlns="http://www.w3.org/2000/svg" width="56" height="56" fill="none"><path fill="#2EF171" fill-rule="evenodd" d="M6 6h44v44H6V6zm33.636 36.886c-2.04 0-3.193-1.064-4.079-2.51l-3.36 1.951c1.214 2.399 3.694 4.229 7.534 4.229 3.928 0 6.852-2.04 6.852-5.762 0-3.453-1.984-4.99-5.497-6.496l-1.033-.443c-1.774-.768-2.542-1.27-2.542-2.51 0-1.004.767-1.772 1.978-1.772 1.187 0 1.952.5 2.661 1.772l3.22-2.068c-1.362-2.395-3.252-3.31-5.88-3.31-3.693 0-6.056 2.36-6.056 5.462 0 3.366 1.982 4.958 4.966 6.23l1.033.443c1.886.825 3.01 1.327 3.01 2.745 0 1.183-1.094 2.039-2.807 2.039zm-16.024-.026c-1.42 0-2.011-.974-2.66-2.127l-3.367 2.038c.975 2.064 2.893 3.777 6.203 3.777 3.664 0 6.174-1.949 6.174-6.23V26.203h-4.135v14.06c0 2.066-.857 2.597-2.215 2.597z" clip-rule="evenodd"/></svg>