<svg xmlns="http://www.w3.org/2000/svg" width="56" height="56" fill="none"><path fill="#2EF171" d="M28 32.397c2.462 0 4.457-1.969 4.457-4.397S30.462 23.603 28 23.603c-2.46 0-4.456 1.968-4.456 4.397 0 2.428 1.995 4.397 4.456 4.397z"/><path fill="#2EF171" fill-rule="evenodd" d="M23.454 20.23c-.83 1.2-1.64 2.47-2.419 3.802A59.911 59.911 0 0 0 18.907 28a59.911 59.911 0 0 0 2.128 3.968 60.037 60.037 0 0 0 2.419 3.802 61.48 61.48 0 0 0 4.546.166c1.559 0 3.08-.057 4.548-.166.83-1.2 1.64-2.47 2.419-3.802A59.86 59.86 0 0 0 37.095 28a59.86 59.86 0 0 0-2.128-3.968 60.063 60.063 0 0 0-2.42-3.802A61.809 61.809 0 0 0 28 20.064a61.48 61.48 0 0 0-4.546.166zm-2.789.274a63.03 63.03 0 0 0-2.912 4.976 47.048 47.048 0 0 1-1.574-4.214 48.684 48.684 0 0 1 4.486-.762zm4.424-2.52a64.936 64.936 0 0 1 5.824 0A47.612 47.612 0 0 0 28 14.532a47.61 47.61 0 0 0-2.912 3.452zm1.395-4.994a51.505 51.505 0 0 0-4.232 5.186 52.95 52.95 0 0 0-6.668 1.023 30 30 0 0 1-.556-2.632c-.354-2.18-.362-4.018-.059-5.416.303-1.398.886-2.237 1.619-2.655.732-.417 1.76-.496 3.14-.056 1.378.44 2.987 1.366 4.724 2.76a30.6 30.6 0 0 1 2.032 1.79zm3.033 0a51.481 51.481 0 0 1 4.232 5.187c2.37.216 4.612.563 6.668 1.023.235-.915.42-1.795.556-2.633.354-2.18.363-4.018.06-5.416-.303-1.399-.886-2.238-1.62-2.655-.732-.417-1.76-.496-3.138-.056-1.38.44-2.988 1.366-4.725 2.76a30.601 30.601 0 0 0-2.033 1.79zm13.007 6.737c.25-.975.45-1.918.596-2.82.379-2.332.417-4.457.038-6.205-.378-1.748-1.206-3.237-2.657-4.063-1.451-.827-3.172-.79-4.896-.24-1.723.55-3.569 1.646-5.426 3.136A32.843 32.843 0 0 0 28 11.454a32.77 32.77 0 0 0-2.178-1.92C23.965 8.046 22.12 6.95 20.396 6.4c-1.723-.55-3.444-.588-4.895.239-1.451.826-2.279 2.316-2.658 4.063-.379 1.748-.34 3.873.039 6.205.146.902.345 1.845.595 2.82-.98.274-1.908.575-2.774.901-2.236.843-4.12 1.872-5.465 3.07C3.893 24.895 3 26.348 3 28c0 1.653.893 3.105 2.238 4.303 1.344 1.197 3.229 2.226 5.465 3.069.866.326 1.793.627 2.774.901-.25.975-.449 1.917-.595 2.82-.379 2.332-.418 4.457-.039 6.205.379 1.747 1.207 3.237 2.658 4.063 1.45.827 3.172.79 4.895.24 1.724-.55 3.57-1.646 5.427-3.136a32.814 32.814 0 0 0 2.178-1.919 32.52 32.52 0 0 0 2.178 1.92c1.857 1.489 3.703 2.584 5.426 3.135 1.724.55 3.445.587 4.896-.24 1.45-.826 2.279-2.316 2.657-4.063.38-1.748.34-3.873-.038-6.205a32.157 32.157 0 0 0-.596-2.82 33.46 33.46 0 0 0 2.773-.901c2.236-.843 4.12-1.872 5.465-3.07C52.107 31.106 53 29.654 53 28c0-1.653-.893-3.105-2.238-4.302-1.344-1.198-3.229-2.227-5.465-3.07a33.262 33.262 0 0 0-2.773-.9zm-2.701 1.539a48.714 48.714 0 0 0-4.487-.762 63.025 63.025 0 0 1 2.912 4.976 47.044 47.044 0 0 0 1.575-4.214zM39.498 28a50.962 50.962 0 0 0 2.436-6.209c.92.257 1.784.538 2.587.841 2.091.788 3.709 1.7 4.785 2.658 1.075.958 1.52 1.875 1.52 2.71s-.445 1.752-1.52 2.71c-1.076.958-2.694 1.87-4.785 2.658-.803.303-1.668.584-2.587.84A50.936 50.936 0 0 0 39.498 28zm-1.25 2.52a62.94 62.94 0 0 1-2.912 4.976 48.687 48.687 0 0 0 4.487-.762 47.034 47.034 0 0 0-1.575-4.214zm2.17 6.28c-2.057.46-4.299.807-6.669 1.024a51.505 51.505 0 0 1-4.232 5.186 30.63 30.63 0 0 0 2.033 1.79c1.737 1.394 3.346 2.32 4.725 2.76 1.378.44 2.406.361 3.139-.056.733-.417 1.316-1.256 1.619-2.655.303-1.398.294-3.235-.06-5.416a29.978 29.978 0 0 0-.556-2.632zM28 41.469a47.61 47.61 0 0 0 2.912-3.452 64.86 64.86 0 0 1-5.824 0A47.603 47.603 0 0 0 28 41.469zm-7.336-5.972a63.11 63.11 0 0 1-2.912-4.976 47.052 47.052 0 0 0-1.574 4.214 48.31 48.31 0 0 0 4.486.762zm-5.08 1.305c2.056.46 4.298.806 6.668 1.023a51.5 51.5 0 0 0 4.231 5.186 30.6 30.6 0 0 1-2.032 1.79c-1.737 1.394-3.346 2.32-4.725 2.76-1.379.44-2.407.361-3.14-.056-.732-.417-1.315-1.256-1.618-2.655-.303-1.398-.295-3.236.06-5.416a29.7 29.7 0 0 1 .555-2.632zm-1.517-2.592a31.106 31.106 0 0 1-2.59-.84c-2.09-.789-3.708-1.7-4.783-2.659-1.076-.958-1.521-1.875-1.521-2.71s.445-1.752 1.52-2.71c1.076-.958 2.693-1.87 4.785-2.658a30.909 30.909 0 0 1 2.589-.841A50.943 50.943 0 0 0 16.504 28a50.944 50.944 0 0 0-2.436 6.21zM28 24.675c-1.86 0-3.37 1.489-3.37 3.325s1.51 3.324 3.37 3.324c1.861 0 3.37-1.488 3.37-3.324 0-1.836-1.509-3.325-3.37-3.325zM22.457 28c0-3.02 2.482-5.47 5.543-5.47 3.062 0 5.544 2.45 5.544 5.47 0 3.02-2.482 5.47-5.544 5.47-3.061 0-5.543-2.45-5.543-5.47z" clip-rule="evenodd"/></svg>