<svg xmlns="http://www.w3.org/2000/svg" width="56" height="56" fill="none"><path fill="#2EF171" fill-rule="evenodd" d="M28 13c-6.933 0-11.267 3.444-13 10.333 2.6-3.444 5.633-4.736 9.1-3.875 1.978.491 3.392 1.918 4.956 3.495 2.55 2.571 5.5 5.547 11.944 5.547 6.933 0 11.267-3.444 13-10.333-2.6 3.444-5.633 4.736-9.1 3.875-1.978-.491-3.392-1.918-4.956-3.495C37.394 15.976 34.444 13 28 13zM15 28.5c-6.933 0-11.267 3.444-13 10.333 2.6-3.444 5.633-4.736 9.1-3.875 1.978.492 3.392 1.918 4.956 3.495C18.606 41.024 21.556 44 28 44c6.933 0 11.267-3.444 13-10.333-2.6 3.444-5.633 4.736-9.1 3.875-1.978-.491-3.392-1.918-4.956-3.495-2.55-2.571-5.5-5.547-11.944-5.547z" clip-rule="evenodd"/></svg>